<svg width="109" height="32" viewBox="0 0 343.64 372.21" fill="none" xmlns="http://www.w3.org/2000/svg">
  <defs>
    <style>
      .cls-1 {
        fill: #62b6cb;
      }

      .cls-1, .cls-2 {
        fill-rule: evenodd;
        stroke-width: 0px;
      }

      .cls-2 {
        fill: #fff;
      }
    </style>
  </defs>
  <g>
    <g>
      <path class="cls-1" d="M79.5,116.22L6.09,83.95c-1.48-.64-2.39-2.01-2.39-3.62s.91-2.99,2.39-3.62L170.26,6.05c1.03-.44,2.09-.44,3.12,0l164.17,70.65c1.48.64,2.39,2.01,2.39,3.62s-.91,2.99-2.39,3.62l-73.41,32.27"/>
      <path class="cls-1" d="M35.5,79.77v80.1c3.96,2.32,6.62,6.63,6.62,11.55,0,3.7-1.5,7.05-3.93,9.47l4.24,18.6c.23,1,0,1.95-.63,2.75-.64.8-1.52,1.22-2.54,1.22h-21.06c-1.02,0-1.9-.42-2.54-1.22-.64-.8-.85-1.75-.63-2.75l4.24-18.6c-2.43-2.42-3.93-5.77-3.93-9.47,0-4.93,2.66-9.23,6.62-11.55v-80.1h13.52Z"/>
    </g>
    <path class="cls-1" d="M79.5,116.22h184.63v235.31c0,8.23-6.73,14.96-14.96,14.96H94.47c-8.23,0-14.96-6.73-14.96-14.96V116.22Z"/>
  </g>
  <g>
    <path class="cls-2" d="M97.85,130.46c49.34-21.92,98.69-22.98,148.03-.05,2.54,1.18,4.11,3.78,4.11,6.82v207.72c0,4.08-3.02,7.4-6.71,7.4H100.36c-3.7,0-6.71-3.32-6.71-7.4v-207.63c0-3.08,1.61-5.71,4.2-6.87Z"/>
    <path class="cls-1" d="M129.87,140.04c-2.22.43-4.38-1.02-4.81-3.24-.43-2.22,1.02-4.38,3.24-4.81,14.38-2.82,28.96-4.24,43.53-4.24s29.14,1.41,43.53,4.24c2.22.43,3.68,2.59,3.24,4.81s-2.59,3.68-4.81,3.24c-13.84-2.72-27.89-4.08-41.95-4.08s-28.11,1.36-41.95,4.08Z"/>
  </g>
</svg>
